<svg xmlns="http://www.w3.org/2000/svg" width="230" height="65" viewBox="0 0 230 65" fill="none"><path d="M71.4072 18.4715H80.2824L92.7803 54.2485H87.0686L77.8118 27.3857V54.2485H71.4072V18.4715Z" fill="url(#paint0_linear_74_22)"></path><path d="M91.3242 41.5573L94.2048 49.8179L101.924 27.5341V54.2485H108.551V18.4715H99.5666L91.3242 41.5573Z" fill="url(#paint1_linear_74_22)"></path><path d="M121.463 18.4715H114.829V54.245H121.463V18.4715Z" fill="url(#paint2_linear_74_22)"></path><path d="M128.295 18.4715H134.965V47.7404H145.833V54.2485H128.295V18.4715Z" fill="url(#paint3_linear_74_22)"></path><path d="M168.726 18.4715H149.527V24.9019H168.726V18.4715Z" fill="url(#paint4_linear_74_22)"></path><path d="M168.726 33.1448H149.527V39.5752H168.726V33.1448Z" fill="url(#paint5_linear_74_22)"></path><path d="M168.726 47.8181H149.527V54.2485H168.726V47.8181Z" fill="url(#paint6_linear_74_22)"></path><path d="M178.425 54.2485H185.002V24.9019H191.679V18.4715H171.805V24.9019H178.382L178.425 54.2485Z" fill="url(#paint7_linear_74_22)"></path><path d="M211.26 17.5317C200.943 17.5317 192.58 25.9406 192.58 36.3105C192.58 46.6804 200.943 55.0894 211.26 55.0894C221.577 55.0894 229.944 46.684 229.944 36.3105C229.944 25.9371 221.581 17.5317 211.26 17.5317ZM211.14 48.6661C204.569 48.6661 199.243 43.2038 199.243 36.4625C199.243 29.7211 204.569 24.2589 211.14 24.2589C217.711 24.2589 223.037 29.7247 223.037 36.4625C223.037 43.2002 217.711 48.6661 211.14 48.6661Z" fill="url(#paint8_linear_74_22)"></path><path d="M56.6191 41.9142C56.6438 41.8576 56.6615 41.8082 56.6721 41.7764C56.6544 41.8223 56.6367 41.8682 56.6191 41.9142ZM55.0639 45.2177L16.6051 12.2778L11.4341 7.81541C9.50779 9.47247 7.77942 11.3557 6.27726 13.4226L51.4233 50.2136C46.7083 55.2802 39.9787 58.4495 32.5103 58.4495C22.7657 58.4495 14.2829 53.0543 9.88244 45.0905C9.88244 45.1258 4.76096 49.4363 4.76096 49.4363C10.4727 58.771 20.7616 65 32.5138 65C44.266 65 54.4383 58.8381 60.1677 49.5918C60.0157 49.4681 55.0674 45.2177 55.0674 45.2177H55.0639ZM6.67666 32.6219C6.67666 31.6573 6.73321 30.7104 6.83218 29.7741L32.0084 50.9839L39.6252 44.9421L34.1715 40.2642L32.3406 41.741L3.73949 17.4716C1.4244 21.9411 0 27.1172 0 32.4982C0 37.48 1.12043 42.1968 3.12096 46.4154C3.18811 46.3236 8.03744 42.2357 8.39442 41.9C7.28459 39.0205 6.67666 35.8936 6.67666 32.6219ZM8.39442 41.9C8.39442 41.9 8.40503 41.9212 8.40856 41.9318C8.40149 41.9106 8.39442 41.9 8.39442 41.9ZM61.4684 17.7119L56.1242 22.1283L56.0818 22.1637L50.0979 27.1031L35.9882 14.4578L30.6511 19.1463L50.0131 36.2717L58.146 29.4067C58.2767 30.4596 58.3474 31.5301 58.3474 32.6184C58.3474 35.83 57.7607 38.9039 56.6862 41.741C56.6862 41.741 61.8254 46.2282 61.9243 46.3625C63.9142 42.158 65.0241 37.4588 65.0241 32.4947C65.0241 27.1702 63.7446 22.1425 61.4719 17.7083L61.4684 17.7119ZM32.5103 0C25.9078 0 19.8038 1.96092 14.7035 5.33864L20.0583 9.99538C23.7518 7.95673 27.9932 6.79785 32.5138 6.79785C41.8201 6.79785 49.9742 11.716 54.5231 19.0933L59.9768 15.0938C54.205 6.02055 44.061 0 32.5103 0Z" fill="url(#paint9_linear_74_22)"></path><path d="M226.918 12.1118C227.091 11.8715 227.176 11.603 227.176 11.3062C227.176 11.0553 227.116 10.8257 226.996 10.6207C226.876 10.4158 226.695 10.2533 226.455 10.1332C226.215 10.013 225.918 9.94944 225.571 9.94944H223.638V14.479H224.38V12.6665H225.317L226.36 14.479H227.247L226.126 12.6029C226.483 12.5145 226.745 12.352 226.918 12.1118ZM224.384 12.0764V10.5571H225.575C225.858 10.5571 226.07 10.6243 226.208 10.755C226.345 10.8893 226.416 11.0695 226.416 11.3062C226.416 11.5429 226.345 11.7266 226.204 11.868C226.063 12.0058 225.854 12.0764 225.575 12.0764H224.384Z" fill="url(#paint10_linear_74_22)"></path><path d="M225.144 7.36315C222.468 7.36315 220.287 9.53959 220.287 12.2177C220.287 14.8959 222.464 17.0723 225.144 17.0723C227.823 17.0723 230 14.8959 230 12.2177C230 9.53959 227.823 7.36315 225.144 7.36315ZM225.144 16.3127C222.885 16.3127 221.047 14.4755 221.047 12.2177C221.047 9.96004 222.885 8.12279 225.144 8.12279C227.402 8.12279 229.24 9.96004 229.24 12.2177C229.24 14.4755 227.402 16.3127 225.144 16.3127Z" fill="url(#paint11_linear_74_22)"></path><defs><linearGradient id="paint0_linear_74_22" x1="0" y1="12.2177" x2="230" y2="12.2177" gradientUnits="userSpaceOnUse"><stop stop-color="#A9803F"></stop><stop offset="0.5" stop-color="#DBB171"></stop><stop offset="1" stop-color="#A9803F"></stop></linearGradient><linearGradient id="paint1_linear_74_22" x1="0" y1="12.2177" x2="230" y2="12.2177" gradientUnits="userSpaceOnUse"><stop stop-color="#A9803F"></stop><stop offset="0.5" stop-color="#DBB171"></stop><stop offset="1" stop-color="#A9803F"></stop></linearGradient><linearGradient id="paint2_linear_74_22" x1="0" y1="12.2177" x2="230" y2="12.2177" gradientUnits="userSpaceOnUse"><stop stop-color="#A9803F"></stop><stop offset="0.5" stop-color="#DBB171"></stop><stop offset="1" stop-color="#A9803F"></stop></linearGradient><linearGradient id="paint3_linear_74_22" x1="0" y1="12.2177" x2="230" y2="12.2177" gradientUnits="userSpaceOnUse"><stop stop-color="#A9803F"></stop><stop offset="0.5" stop-color="#DBB171"></stop><stop offset="1" stop-color="#A9803F"></stop></linearGradient><linearGradient id="paint4_linear_74_22" x1="0" y1="12.2177" x2="230" y2="12.2177" gradientUnits="userSpaceOnUse"><stop stop-color="#A9803F"></stop><stop offset="0.5" stop-color="#DBB171"></stop><stop offset="1" stop-color="#A9803F"></stop></linearGradient><linearGradient id="paint5_linear_74_22" x1="0" y1="12.2177" x2="230" y2="12.2177" gradientUnits="userSpaceOnUse"><stop stop-color="#A9803F"></stop><stop offset="0.5" stop-color="#DBB171"></stop><stop offset="1" stop-color="#A9803F"></stop></linearGradient><linearGradient id="paint6_linear_74_22" x1="0" y1="12.2177" x2="230" y2="12.2177" gradientUnits="userSpaceOnUse"><stop stop-color="#A9803F"></stop><stop offset="0.5" stop-color="#DBB171"></stop><stop offset="1" stop-color="#A9803F"></stop></linearGradient><linearGradient id="paint7_linear_74_22" x1="0" y1="12.2177" x2="230" y2="12.2177" gradientUnits="userSpaceOnUse"><stop stop-color="#A9803F"></stop><stop offset="0.5" stop-color="#DBB171"></stop><stop offset="1" stop-color="#A9803F"></stop></linearGradient><linearGradient id="paint8_linear_74_22" x1="0" y1="12.2177" x2="230" y2="12.2177" gradientUnits="userSpaceOnUse"><stop stop-color="#A9803F"></stop><stop offset="0.5" stop-color="#DBB171"></stop><stop offset="1" stop-color="#A9803F"></stop></linearGradient><linearGradient id="paint9_linear_74_22" x1="0" y1="12.2177" x2="230" y2="12.2177" gradientUnits="userSpaceOnUse"><stop stop-color="#A9803F"></stop><stop offset="0.5" stop-color="#DBB171"></stop><stop offset="1" stop-color="#A9803F"></stop></linearGradient><linearGradient id="paint10_linear_74_22" x1="0" y1="12.2177" x2="230" y2="12.2177" gradientUnits="userSpaceOnUse"><stop stop-color="#A9803F"></stop><stop offset="0.5" stop-color="#DBB171"></stop><stop offset="1" stop-color="#A9803F"></stop></linearGradient><linearGradient id="paint11_linear_74_22" x1="0" y1="12.2177" x2="230" y2="12.2177" gradientUnits="userSpaceOnUse"><stop stop-color="#A9803F"></stop><stop offset="0.5" stop-color="#DBB171"></stop><stop offset="1" stop-color="#A9803F"></stop></linearGradient></defs></svg>