<svg xmlns="http://www.w3.org/2000/svg" width="438" height="124" viewBox="0 0 438 124" fill="none"><g clip-path="url(#clip0_2_8)"><path d="M135.984 35.2379H152.886L176.686 103.489H165.809L148.181 52.2435V103.489H135.984V35.2379Z" fill="black"></path><path d="M173.913 79.2786L179.399 95.0372L194.099 52.5266V103.489H206.719V35.2379H189.61L173.913 79.2786Z" fill="black"></path><path d="M231.307 35.2379H218.674V103.483H231.307V35.2379Z" fill="black"></path><path d="M244.318 35.2379H257.02V91.074H277.717V103.489H244.318V35.2379Z" fill="black"></path><path d="M321.313 35.2379H284.751V47.5051H321.313V35.2379Z" fill="black"></path><path d="M321.313 63.2301H284.751V75.4973H321.313V63.2301Z" fill="black"></path><path d="M321.313 91.2223H284.751V103.489H321.313V91.2223Z" fill="black"></path><path d="M339.783 103.489H352.309V47.5051H365.023V35.2379H327.176V47.5051H339.702L339.783 103.489Z" fill="black"></path><path d="M402.313 33.445C382.665 33.445 366.74 49.4868 366.74 69.2693C366.74 89.0519 382.665 105.094 402.313 105.094C421.96 105.094 437.892 89.0586 437.892 69.2693C437.892 49.48 421.967 33.445 402.313 33.445ZM402.084 92.8399C389.571 92.8399 379.428 82.4195 379.428 69.5592C379.428 56.6988 389.571 46.2784 402.084 46.2784C414.597 46.2784 424.74 56.7055 424.74 69.5592C424.74 82.4128 414.597 92.8399 402.084 92.8399Z" fill="black"></path><path d="M107.822 79.9593C107.869 79.8515 107.903 79.7571 107.923 79.6965C107.89 79.7841 107.856 79.8717 107.822 79.9593ZM104.861 86.2615L31.6218 23.4223L21.7745 14.9094C18.1061 18.0706 14.8147 21.6631 11.9541 25.6061L97.9279 95.7921C88.9489 105.458 76.1332 111.504 61.9108 111.504C43.3537 111.504 27.1996 101.211 18.8196 86.0188C18.8196 86.0862 9.06653 94.3093 9.06653 94.3093C19.9437 112.117 39.5373 124 61.9176 124C84.2978 124 103.669 112.245 114.58 94.6059C114.291 94.3699 104.867 86.2615 104.867 86.2615H104.861ZM12.7147 62.2325C12.7147 60.3925 12.8224 58.5861 13.0108 56.7999L60.9551 97.2615L75.4602 85.7357L65.0744 76.8117L61.5878 79.6291L7.12129 33.3304C2.71255 41.8568 0 51.7313 0 61.9966C0 71.5004 2.1337 80.4986 5.94339 88.5464C6.07127 88.3711 15.3061 80.5727 15.9859 79.9324C13.8724 74.4391 12.7147 68.474 12.7147 62.2325ZM15.9859 79.9324C15.9859 79.9324 16.0061 79.9728 16.0128 79.993C15.9994 79.9526 15.9859 79.9324 15.9859 79.9324ZM117.057 33.7888L106.88 42.2141L106.799 42.2815L95.4038 51.7043L68.534 27.581L58.3704 36.5253L95.2423 69.1952L110.73 56.0989C110.979 58.1075 111.114 60.1498 111.114 62.2258C111.114 68.3527 109.996 74.2167 107.95 79.6291C107.95 79.6291 117.737 88.1892 117.925 88.4453C121.715 80.4244 123.828 71.4599 123.828 61.9899C123.828 51.8324 121.392 42.241 117.064 33.782L117.057 33.7888ZM61.9108 0C49.3375 0 37.7132 3.74083 28.0006 10.1845L38.1979 19.0681C45.2317 15.179 53.3088 12.9682 61.9176 12.9682C79.64 12.9682 95.1682 22.3506 103.831 36.4242L114.217 28.7943C103.225 11.4854 83.9074 0 61.9108 0Z" fill="black"></path><path d="M432.131 23.1055C432.46 22.6472 432.622 22.1349 432.622 21.5687C432.622 21.0902 432.507 20.6521 432.279 20.2611C432.05 19.8702 431.707 19.5601 431.249 19.331C430.791 19.1018 430.226 18.9805 429.566 18.9805H425.884V27.6215H427.298V24.1637H429.081L431.067 27.6215H432.757L430.623 24.0424C431.303 23.8739 431.801 23.5638 432.131 23.1055ZM427.305 23.0381V20.1398H429.573C430.111 20.1398 430.515 20.2679 430.778 20.5173C431.04 20.7734 431.175 21.1171 431.175 21.5687C431.175 22.0203 431.04 22.3708 430.771 22.6404C430.502 22.9033 430.105 23.0381 429.573 23.0381H427.305Z" fill="black"></path><path d="M428.752 14.0466C423.656 14.0466 419.503 18.1986 419.503 23.3077C419.503 28.4168 423.65 32.5688 428.752 32.5688C433.854 32.5688 438 28.4168 438 23.3077C438 18.1986 433.854 14.0466 428.752 14.0466ZM428.752 31.1196C424.451 31.1196 420.951 27.6147 420.951 23.3077C420.951 19.0007 424.451 15.4958 428.752 15.4958C433.053 15.4958 436.553 19.0007 436.553 23.3077C436.553 27.6147 433.053 31.1196 428.752 31.1196Z" fill="black"></path></g><defs><clipPath id="clip0_2_8"><rect width="438" height="124" fill="white"></rect></clipPath></defs></svg>